{"asset":{"version":"2.0","generator":"Blockbench 4.9.1 glTF exporter"},"scenes":[{"nodes":[17],"name":"blockbench_export"}],"scene":0,"nodes":[{"name":"torso","mesh":0},{"name":"cylinder","mesh":1},{"name":"sphere","mesh":2},{"name":"r_foot","children":[1,2]},{"name":"cylinder","mesh":3},{"name":"sphere","mesh":4},{"name":"l_foot","children":[4,5]},{"name":"feet","children":[3,6]},{"name":"cube","mesh":5},{"name":"cube","mesh":6},{"name":"l_hand","children":[8,9]},{"name":"cube","mesh":7},{"name":"cube","mesh":8},{"name":"r_hand","children":[11,12]},{"name":"cube","mesh":9},{"name":"sphere","mesh":10},{"name":"head","children":[14,15]},{"children":[0,7,10,13,16]}],"bufferViews":[{"buffer":0,"byteOffset":0,"byteLength":288,"target":34962,"byteStride":12},{"buffer":0,"byteOffset":288,"byteLength":288,"target":34962,"byteStride":12},{"buffer":0,"byteOffset":576,"byteLength":192,"target":34962,"byteStride":8},{"buffer":0,"byteOffset":768,"byteLength":72,"target":34963},{"buffer":0,"byteOffset":840,"byteLength":2160,"target":34962,"byteStride":12},{"buffer":0,"byteOffset":3000,"byteLength":2160,"target":34962,"byteStride":12},{"buffer":0,"byteOffset":5160,"byteLength":1440,"target":34962,"byteStride":8},{"buffer":0,"byteOffset":6600,"byteLength":432,"target":34963},{"buffer":0,"byteOffset":7032,"byteLength":7344,"target":34962,"byteStride":12},{"buffer":0,"byteOffset":14376,"byteLength":7344,"target":34962,"byteStride":12},{"buffer":0,"byteOffset":21720,"byteLength":4896,"target":34962,"byteStride":8},{"buffer":0,"byteOffset":26616,"byteLength":1728,"target":34963},{"buffer":0,"byteOffset":28344,"byteLength":2160,"target":34962,"byteStride":12},{"buffer":0,"byteOffset":30504,"byteLength":2160,"target":34962,"byteStride":12},{"buffer":0,"byteOffset":32664,"byteLength":1440,"target":34962,"byteStride":8},{"buffer":0,"byteOffset":34104,"byteLength":432,"target":34963},{"buffer":0,"byteOffset":34536,"byteLength":7344,"target":34962,"byteStride":12},{"buffer":0,"byteOffset":41880,"byteLength":7344,"target":34962,"byteStride":12},{"buffer":0,"byteOffset":49224,"byteLength":4896,"target":34962,"byteStride":8},{"buffer":0,"byteOffset":54120,"byteLength":1728,"target":34963},{"buffer":0,"byteOffset":55848,"byteLength":288,"target":34962,"byteStride":12},{"buffer":0,"byteOffset":56136,"byteLength":288,"target":34962,"byteStride":12},{"buffer":0,"byteOffset":56424,"byteLength":192,"target":34962,"byteStride":8},{"buffer":0,"byteOffset":56616,"byteLength":72,"target":34963},{"buffer":0,"byteOffset":56688,"byteLength":288,"target":34962,"byteStride":12},{"buffer":0,"byteOffset":56976,"byteLength":288,"target":34962,"byteStride":12},{"buffer":0,"byteOffset":57264,"byteLength":192,"target":34962,"byteStride":8},{"buffer":0,"byteOffset":57456,"byteLength":72,"target":34963},{"buffer":0,"byteOffset":57528,"byteLength":288,"target":34962,"byteStride":12},{"buffer":0,"byteOffset":57816,"byteLength":288,"target":34962,"byteStride":12},{"buffer":0,"byteOffset":58104,"byteLength":192,"target":34962,"byteStride":8},{"buffer":0,"byteOffset":58296,"byteLength":72,"target":34963},{"buffer":0,"byteOffset":58368,"byteLength":288,"target":34962,"byteStride":12},{"buffer":0,"byteOffset":58656,"byteLength":288,"target":34962,"byteStride":12},{"buffer":0,"byteOffset":58944,"byteLength":192,"target":34962,"byteStride":8},{"buffer":0,"byteOffset":59136,"byteLength":72,"target":34963},{"buffer":0,"byteOffset":59208,"byteLength":288,"target":34962,"byteStride":12},{"buffer":0,"byteOffset":59496,"byteLength":288,"target":34962,"byteStride":12},{"buffer":0,"byteOffset":59784,"byteLength":192,"target":34962,"byteStride":8},{"buffer":0,"byteOffset":59976,"byteLength":72,"target":34963},{"buffer":0,"byteOffset":60048,"byteLength":13248,"target":34962,"byteStride":12},{"buffer":0,"byteOffset":73296,"byteLength":13248,"target":34962,"byteStride":12},{"buffer":0,"byteOffset":86544,"byteLength":8832,"target":34962,"byteStride":8},{"buffer":0,"byteOffset":95376,"byteLength":3168,"target":34963}],"buffers":[{"byteLength":98544,"uri":"data:application/octet-stream;base64,"}],"accessors":[{"bufferView":0,"componentType":5126,"count":24,"max":[0.1875,1.25,0.3125],"min":[-0.1875,0.5,-0.25],"type":"VEC3"},{"bufferView":1,"componentType":5126,"count":24,"max":[1,1,1],"min":[-1,-1,-1],"type":"VEC3"},{"bufferView":2,"componentType":5126,"count":24,"max":[0.75,0.75],"min":[0,0],"type":"VEC2"},{"bufferView":3,"componentType":5123,"count":36,"max":[23],"min":[0],"type":"SCALAR"},{"bufferView":4,"componentType":5126,"count":180,"max":[0.09519624710083008,0.5,-0.03125],"min":[-0.09519624710083008,0.125,-0.21875],"type":"VEC3"},{"bufferView":5,"componentType":5126,"count":180,"max":[0.9848077297210693,1,1],"min":[-0.9848077297210693,-1,-1],"type":"VEC3"},{"bufferView":6,"componentType":5126,"count":180,"max":[0.36009687185287476,0.40625],"min":[0,0],"type":"VEC2"},{"bufferView":7,"componentType":5123,"count":216,"max":[179],"min":[0],"type":"SCALAR"},{"bufferView":8,"componentType":5126,"count":612,"max":[0.09375,0.15625,-0.03267427161335945],"min":[-0.09375,-0.03125,-0.21732573211193085],"type":"VEC3"},{"bufferView":9,"componentType":5126,"count":612,"max":[0.9848077297210693,0.9848077297210693,1],"min":[-0.9848077297210693,-0.9848077297210693,-1],"type":"VEC3"},{"bufferView":10,"componentType":5126,"count":612,"max":[0.4889041781425476,0.53125],"min":[0,0.017165303230285645],"type":"VEC2"},{"bufferView":11,"componentType":5123,"count":864,"max":[611],"min":[0],"type":"SCALAR"},{"bufferView":12,"componentType":5126,"count":180,"max":[0.09519624710083008,0.5,0.28125],"min":[-0.09519624710083008,0.125,0.09375],"type":"VEC3"},{"bufferView":13,"componentType":5126,"count":180,"max":[0.9848077297210693,1,1],"min":[-0.9848077297210693,-1,-1],"type":"VEC3"},{"bufferView":14,"componentType":5126,"count":180,"max":[0.36009687185287476,0.40625],"min":[0,0],"type":"VEC2"},{"bufferView":15,"componentType":5123,"count":216,"max":[179],"min":[0],"type":"SCALAR"},{"bufferView":16,"componentType":5126,"count":612,"max":[0.09375,0.15625,0.27982571721076965],"min":[-0.09375,-0.03125,0.09517427533864975],"type":"VEC3"},{"bufferView":17,"componentType":5126,"count":612,"max":[0.9848077297210693,0.9848077297210693,1],"min":[-0.9848077297210693,-0.9848077297210693,-1],"type":"VEC3"},{"bufferView":18,"componentType":5126,"count":612,"max":[0.5,0.53125],"min":[0,0],"type":"VEC2"},{"bufferView":19,"componentType":5123,"count":864,"max":[611],"min":[0],"type":"SCALAR"},{"bufferView":20,"componentType":5126,"count":24,"max":[0.0625,1.25,0.4375],"min":[-0.0625,1.125,0.3125],"type":"VEC3"},{"bufferView":21,"componentType":5126,"count":24,"max":[1,1,1],"min":[-1,-1,-1],"type":"VEC3"},{"bufferView":22,"componentType":5126,"count":24,"max":[0.625,0.6875],"min":[0.25,0.1875],"type":"VEC2"},{"bufferView":23,"componentType":5123,"count":36,"max":[23],"min":[0],"type":"SCALAR"},{"bufferView":24,"componentType":5126,"count":24,"max":[0.0625,1.25,0.625],"min":[-0.0625,0.75,0.4375],"type":"VEC3"},{"bufferView":25,"componentType":5126,"count":24,"max":[1,1,1],"min":[-1,-1,-1],"type":"VEC3"},{"bufferView":26,"componentType":5126,"count":24,"max":[0.625,1],"min":[0,0],"type":"VEC2"},{"bufferView":27,"componentType":5123,"count":36,"max":[23],"min":[0],"type":"SCALAR"},{"bufferView":28,"componentType":5126,"count":24,"max":[0.0625,1.25,-0.375],"min":[-0.0625,0.75,-0.5625],"type":"VEC3"},{"bufferView":29,"componentType":5126,"count":24,"max":[1,1,1],"min":[-1,-1,-1],"type":"VEC3"},{"bufferView":30,"componentType":5126,"count":24,"max":[0.625,1],"min":[0,0],"type":"VEC2"},{"bufferView":31,"componentType":5123,"count":36,"max":[23],"min":[0],"type":"SCALAR"},{"bufferView":32,"componentType":5126,"count":24,"max":[0.0625,1.25,-0.25],"min":[-0.0625,1.125,-0.375],"type":"VEC3"},{"bufferView":33,"componentType":5126,"count":24,"max":[1,1,1],"min":[-1,-1,-1],"type":"VEC3"},{"bufferView":34,"componentType":5126,"count":24,"max":[0.625,0.6875],"min":[0.25,0.1875],"type":"VEC2"},{"bufferView":35,"componentType":5123,"count":36,"max":[23],"min":[0],"type":"SCALAR"},{"bufferView":36,"componentType":5126,"count":24,"max":[0.125,1.375,0.1875],"min":[-0.125,1.25,-0.0625],"type":"VEC3"},{"bufferView":37,"componentType":5126,"count":24,"max":[1,1,1],"min":[-1,-1,-1],"type":"VEC3"},{"bufferView":38,"componentType":5126,"count":24,"max":[0.5,0.5],"min":[0,0],"type":"VEC2"},{"bufferView":39,"componentType":5123,"count":36,"max":[23],"min":[0],"type":"SCALAR"},{"bufferView":40,"componentType":5126,"count":1104,"max":[0.1875,1.6875,0.25],"min":[-0.1875,1.3125,-0.125],"type":"VEC3"},{"bufferView":41,"componentType":5126,"count":1104,"max":[0.9914448857307434,0.9914448857307434,0.9914448857307434],"min":[-0.9914448857307434,-0.9914448857307434,-0.9914448857307434],"type":"VEC3"},{"bufferView":42,"componentType":5126,"count":1104,"max":[0.6174486875534058,0.5625],"min":[0,0],"type":"VEC2"},{"bufferView":43,"componentType":5123,"count":1584,"max":[1103],"min":[0],"type":"SCALAR"}],"materials":[{"pbrMetallicRoughness":{"metallicFactor":0,"roughnessFactor":1,"baseColorTexture":{"index":0}},"alphaMode":"MASK","alphaCutoff":0.05,"doubleSided":true},{"pbrMetallicRoughness":{"metallicFactor":0,"roughnessFactor":1,"baseColorTexture":{"index":1}},"alphaMode":"MASK","alphaCutoff":0.05,"doubleSided":true},{"pbrMetallicRoughness":{"metallicFactor":0,"roughnessFactor":1,"baseColorTexture":{"index":2}},"alphaMode":"MASK","alphaCutoff":0.05,"doubleSided":true},{"pbrMetallicRoughness":{"metallicFactor":0,"roughnessFactor":1,"baseColorTexture":{"index":3}},"alphaMode":"MASK","alphaCutoff":0.05,"doubleSided":true},{"pbrMetallicRoughness":{"metallicFactor":0,"roughnessFactor":1,"baseColorTexture":{"index":4}},"alphaMode":"MASK","alphaCutoff":0.05,"doubleSided":true},{"pbrMetallicRoughness":{"metallicFactor":0,"roughnessFactor":1,"baseColorTexture":{"index":5}},"alphaMode":"MASK","alphaCutoff":0.05,"doubleSided":true},{"pbrMetallicRoughness":{"metallicFactor":0,"roughnessFactor":1,"baseColorTexture":{"index":6}},"alphaMode":"MASK","alphaCutoff":0.05,"doubleSided":true}],"textures":[{"sampler":0,"source":0},{"sampler":1,"source":1},{"sampler":2,"source":2},{"sampler":3,"source":3},{"sampler":4,"source":4},{"sampler":5,"source":5},{"sampler":6,"source":6}],"samplers":[{"magFilter":9728,"minFilter":9728,"wrapS":33071,"wrapT":33071},{"magFilter":9728,"minFilter":9728,"wrapS":33071,"wrapT":33071},{"magFilter":9728,"minFilter":9728,"wrapS":33071,"wrapT":33071},{"magFilter":9728,"minFilter":9728,"wrapS":33071,"wrapT":33071},{"magFilter":9728,"minFilter":9728,"wrapS":33071,"wrapT":33071},{"magFilter":9728,"minFilter":9728,"wrapS":33071,"wrapT":33071},{"magFilter":9728,"minFilter":9728,"wrapS":33071,"wrapT":33071}],"images":[{"mimeType":"image/png","uri":"data:image/png;base64,"},{"mimeType":"image/png","uri":"data:image/png;base64,"},{"mimeType":"image/png","uri":"data:image/png;base64,"},{"mimeType":"image/png","uri":"data:image/png;base64,"},{"mimeType":"image/png","uri":"data:image/png;base64,"},{"mimeType":"image/png","uri":"data:image/png;base64,"},{"mimeType":"image/png","uri":"data:image/png;base64,"}],"meshes":[{"primitives":[{"mode":4,"attributes":{"POSITION":0,"NORMAL":1,"TEXCOORD_0":2},"indices":3,"material":0}]},{"primitives":[{"mode":4,"attributes":{"POSITION":4,"NORMAL":5,"TEXCOORD_0":6},"indices":7,"material":1}]},{"primitives":[{"mode":4,"attributes":{"POSITION":8,"NORMAL":9,"TEXCOORD_0":10},"indices":11,"material":1}]},{"primitives":[{"mode":4,"attributes":{"POSITION":12,"NORMAL":13,"TEXCOORD_0":14},"indices":15,"material":2}]},{"primitives":[{"mode":4,"attributes":{"POSITION":16,"NORMAL":17,"TEXCOORD_0":18},"indices":19,"material":2}]},{"primitives":[{"mode":4,"attributes":{"POSITION":20,"NORMAL":21,"TEXCOORD_0":22},"indices":23,"material":3}]},{"primitives":[{"mode":4,"attributes":{"POSITION":24,"NORMAL":25,"TEXCOORD_0":26},"indices":27,"material":3}]},{"primitives":[{"mode":4,"attributes":{"POSITION":28,"NORMAL":29,"TEXCOORD_0":30},"indices":31,"material":4}]},{"primitives":[{"mode":4,"attributes":{"POSITION":32,"NORMAL":33,"TEXCOORD_0":34},"indices":35,"material":4}]},{"primitives":[{"mode":4,"attributes":{"POSITION":36,"NORMAL":37,"TEXCOORD_0":38},"indices":39,"material":5}]},{"primitives":[{"mode":4,"attributes":{"POSITION":40,"NORMAL":41,"TEXCOORD_0":42},"indices":43,"material":6}]}]}